<?xml version="1.0" encoding="UTF-8"?>
<svg width="1200pt" height="1200pt" version="1.1" viewBox="0 0 1200 1200" xmlns="http://www.w3.org/2000/svg">
 <path d="m600 60c-296.4 0-537.6 241.2-540 536.4-1.1992 144 54 280.8 156 382.8 100.8 103.2 236.4 159.6 380.4 160.8h3.6016c296.4 0 537.6-241.2 540-536.4 1.1992-297.6-238.8-541.2-540-543.6zm228 716.4c14.398 14.398 14.398 37.199 0 51.602-7.1992 7.1992-16.801 10.801-25.199 10.801-9.6016 0-18-3.6016-25.199-10.801l-177.6-176.4-176.4 176.4c-7.1992 7.1992-16.801 10.801-25.199 10.801-8.4023 0-19.203-3.6016-26.402-10.801-14.398-14.398-14.398-37.199 0-51.602l176.4-176.4-176.4-177.6c-14.398-14.398-14.398-37.199 0-51.602 14.398-14.398 37.199-14.398 51.602 0l176.4 177.6 176.4-176.4c14.398-14.398 37.199-14.398 51.602 0 14.398 14.398 14.398 37.199 0 51.602l-176.4 176.4z" fill="#fff"/>
</svg>
