<?xml version="1.0" encoding="UTF-8"?>
<svg width="1200pt" height="1200pt" version="1.1" viewBox="0 0 1200 1200" xmlns="http://www.w3.org/2000/svg">
 <g fill="#fff">
  <path d="m633.6 442.68c31.559 0 65.281-36 74.879-46.68 9.6016-10.68 28.32-34.199 26.281-49.68-0.96094-6.9609-3.3594-25.441-99.961-34.922h-2.2812c-96.602 9.3594-99.121 27.961-99.961 34.922-2.1602 15.48 17.641 39.961 26.281 49.68s43.199 46.68 74.762 46.68zm0-107.28c26.168 1.7148 51.973 7.0469 76.68 15.84-5.6406 17.16-49.922 67.441-76.68 67.441-26.762 0-72-51.48-76.922-67.32 24.781-8.7422 50.684-13.914 76.922-15.359z"/>
  <path d="m973.44 828.72c-9.832 0.046875-19.52 2.3477-28.32 6.7227 0.71875-11.16 1.3203-21.719 1.6797-30.961v-1.5586-1.9219-40.922-14.758c0-116.76-135.96-306.36-154.8-332.04l-17.281-152.76c0-48-13.922-85.078-40.922-111.84h0.003906c-27.281-25.316-62.875-39.785-100.08-40.68-37.25 0.84375-72.902 15.316-100.2 40.68-27.121 26.762-40.801 64.32-41.039 111.84l-17.402 152.76c-19.078 25.68-154.68 215.28-154.68 332.04v14.762c0 2.7617-0.60156 16.68 0 37.199-42.121-16.32-89.762-31.078-111.6 1.3203-24 36 17.398 79.559 50.762 114.6v-0.003906c11.02 10.254 20.586 21.965 28.441 34.801 0.83984 5.5195-10.68 10.199-25.801 15.719-12.715 3.332-24.445 9.6719-34.199 18.48-6.0156 6.4258-8.2461 15.523-5.8789 24 4.9219 16.922 26.398 38.879 149.28 74.52h-0.003906c13.199 3.8672 26.625 6.9141 40.203 9.1211 7.6914 1.293 15.477 1.9375 23.277 1.9219 8.0508-0.074219 16.082-0.83594 24-2.2812 7.9141 1.4883 15.949 2.2539 24 2.2812h301.2 10.441 10.078 0.003906c44.773-0.0625 86.824-21.512 113.16-57.723 8.1406-11.09 15.594-22.672 22.316-34.68 62.762-111.36 62.762-142.2 54.48-157.68-4.2812-7.7227-12.293-12.637-21.117-12.961zm-629.04-84c0-114.84 150.36-318.24 151.92-320.28l-0.003907 0.003906c1.25-1.6875 2.0352-3.6758 2.2812-5.7617l17.398-156.12v-1.3203c0-41.039 12-73.199 33.719-95.398 23.051-20.969 52.855-32.973 84-33.84 30.938 1.0156 60.504 13.012 83.402 33.84 22.32 22.199 33.602 54.359 33.602 96h-0.003906c-0.050781 0.4375-0.050781 0.88281 0 1.3203l17.762 156.72c0.27344 2.0781 1.0547 4.0586 2.2812 5.7617 1.5586 2.0391 152.04 205.44 152.04 320.28v50.879c0 13.801-1.3203 30.961-3 49.801-6.4805 2.1602-11.16 2.7617-13.199 0-3.2422-14.727-4.4922-29.824-3.7227-44.883-0.71875-44.398-1.5586-98.762-34.441-114.12-15.121-60.719-34.801-105.84-59.281-136.2h0.003906c-1.8672-2.8164-4.832-4.7148-8.168-5.2305-3.3398-0.51562-6.7422 0.39844-9.3711 2.5156-2.6289 2.1211-4.2422 5.2539-4.4453 8.625-0.19922 3.3711 1.0273 6.6719 3.3828 9.0898 21.121 26.398 38.52 65.398 52.32 117.72v0.003906c-15.801 4.168-29.359 14.324-37.801 28.32-21-106.44-89.758-184.44-171.48-184.44-93.602 0-169.92 101.88-177.6 231-20.398-18.48-33.48-24-42.961-25.441 15.121-78.238 36-133.56 63.602-168 4.1133-5.1445 3.3086-12.641-1.8008-16.797-2.4805-2.0156-5.6602-2.957-8.8359-2.6172-3.1719 0.33594-6.082 1.9258-8.082 4.4141-32.281 40.078-56.16 105.72-72 199.08v0.003906c-2.875 7.6641-4.2188 15.816-3.9609 24-2.0391 13.441-3.9609 27.238-5.7617 41.641-10.766-1.7422-21.254-4.8867-31.199-9.3594v-11.16zm315.6 197.52c1.5469 13.684 3.8711 27.266 6.9609 40.684 1.3555 5.9258 3.0391 11.777 5.0391 17.52-12.223 4.8633-25.242 7.4297-38.398 7.5586-22.434-0.26562-44.281-7.1992-62.762-19.922 10.207-37.352 4.5156-77.262-15.719-110.28-7.2578-11.793-15.273-23.094-24-33.84-20.641-26.281-37.801-46.441-52.199-61.801v-2.1602c0-125.76 69.238-228 154.32-228 77.039 0 140.88 84 152.4 192.96-4.9219 9.8398-9.4805 19.922-13.68 29.52-5.2188 14.129-12.324 27.492-21.121 39.719-4.9219 2.8789-13.559-6-24-17.762v0.003906c-8.0078-10.266-18.328-18.488-30.121-24-8.3125-3.25-17.727-1.832-24.719 3.7188-13.68 10.68-25.801 39-12 166.08zm-200.88 123c-8.625 1.9141-17.449 2.7969-26.281 2.6406-5.7461-0.12109-11.477-0.60156-17.16-1.4375l-9.6016-1.9219c-9.1211-1.8008-18.359-3.8398-27.719-6.6016-130.44-37.918-132.96-57.598-132.96-58.316 0.22656-0.57422 0.55078-1.1016 0.96094-1.5625 7.1953-5.4414 15.332-9.5078 24-12 18.961-6.9609 44.762-16.441 41.281-41.641-1.6797-12-13.801-25.559-35.039-48-26.039-27.359-61.68-64.801-48-84.719 5.332-5.9023 13.242-8.7773 21.117-7.6797 19.801 0 48 10.801 72 20.039l3.8398 1.5586 8.6406 3.3594 12 4.6797v0.003906c8.6797 3.5703 17.805 5.9492 27.121 7.0781 3.1758 0.32031 6.3867 0.078125 9.4805-0.71875 6.5273-1.4453 12.246-5.3594 15.961-10.922 6.5977-13.289 9.0625-28.254 7.0781-42.957v-9.4805c-0.51562-6.0469 0.21875-12.133 2.1602-17.879 0.21875-0.50781 0.54688-0.95703 0.96094-1.3203 0.71875 0 10.801-2.5195 47.039 34.801 3.8398 3.9609 8.0391 8.5195 12 13.441s8.7617 9.8398 13.68 15.48c9.2383 10.801 19.32 23.16 30.84 37.68v-0.003906c7.8984 10.039 15.191 20.535 21.84 31.441 15.027 24.41 20.578 53.488 15.602 81.719-0.80078 4.0586-1.8398 8.0664-3.1211 12-1.2344 4.0859-2.7188 8.0938-4.4414 12-2.8125 7.1641-6.3945 14.004-10.68 20.398-16.898 25.133-42.953 42.66-72.598 48.84zm54.48 2.7617c15.125-10.141 28.164-23.098 38.398-38.16 4.0352-6.0625 7.6445-12.398 10.801-18.961 21.152 13.539 45.688 20.859 70.801 21.121 16.797-0.10938 33.422-3.4531 48.957-9.8398 10.637 18.355 25.332 34.035 42.961 45.84zm405.72-80.16c-6.2461 11.141-13.18 21.883-20.762 32.16-0.83984 1.1992-1.9219 2.1602-2.8789 3.3594-12.207 15.766-28.23 28.156-46.559 36-17.051 7.1523-35.578 10.074-54 8.5195-4.832-0.30469-9.6406-0.90234-14.402-1.8008-31.996-6.4688-59.766-26.172-76.438-54.238-2.0312-3.418-3.875-6.9414-5.5195-10.559-1.7188-3.6367-3.2383-7.3633-4.5625-11.16-1.5195-3.918-2.8047-7.9258-3.8398-12-2.9141-12.695-5.0391-25.562-6.3594-38.52-14.762-135.12 2.5195-144.84 3.2383-145.2h1.6797l0.003906-0.003906c7.7578 4.6719 14.594 10.734 20.156 17.883 13.68 14.879 32.281 35.16 54.238 22.32 8.6406-5.0391 15.238-16.559 24-36 2.1602-4.6797 4.4414-9.6016 6.9609-15.238 2.5195-5.6406 3.4805-8.0391 5.3984-12 3.3594-7.5586 7.0781-15.238 10.801-22.559 11.398-21.84 24-40.559 38.281-42.359l0.003907-0.003906c1.7891-0.24219 3.6055-0.24219 5.3984 0 24 4.9219 24 56.52 24.84 94.32-1.2109 18.148 0.69531 36.371 5.6406 53.879 0.78906 1.7344 1.7539 3.3828 2.8789 4.918 3.3086 4.5469 7.8906 8.0117 13.164 9.9531 5.2773 1.9453 11.012 2.2812 16.477 0.96875 4.0781-0.8125 8.0898-1.9375 12-3.3594 4.4414-1.5586 8.7617-3.3594 12.84-5.1602l3.4805-1.6797c7.9492-4.3086 16.605-7.1562 25.559-8.4023 0.59766-0.074218 1.2031-0.074218 1.8008 0 0 0 13.082 17.641-53.52 135.96z"/>
 </g>
</svg>
