<?xml version="1.0" encoding="UTF-8"?>
<svg width="1200pt" height="1200pt" version="1.1" viewBox="0 0 1200 1200" xmlns="http://www.w3.org/2000/svg">
 <path d="m599.99 190.44c-47.457-0.007812-93.637 15.371-131.61 43.836-37.977 28.461-65.695 68.469-79 114.02-13.305 45.555-11.48 94.195 5.2031 138.62 16.688 44.426 47.328 82.246 87.328 107.78 64.762 41.496 144.27 45.922 218.18 11.914 10.176-4.6797 17.086-14.434 18.121-25.586s-3.9609-22.012-13.102-28.484c-9.1406-6.4727-21.039-7.5781-31.215-2.8984-50.484 25.055-110.35 22.137-158.16-7.7109-46.684-29.781-74.184-81.98-72.344-137.32 1.8398-55.34 32.746-105.6 81.301-132.21 48.555-26.613 107.55-25.629 155.19 2.5898 47.641 28.223 76.852 79.488 76.84 134.86 0 11.145-5.9219 21.453-15.547 27.074-9.6289 5.6172-21.516 5.7031-31.223 0.22266-9.7031-5.4805-15.773-15.703-15.934-26.848v-0.44922c0.050781-28.988-13.246-56.383-36.055-74.273-22.805-17.887-52.582-24.281-80.719-17.328-28.141 6.9531-51.512 26.477-63.363 52.93-11.852 26.449-10.863 56.887 2.6836 82.516 13.543 25.625 38.133 43.59 66.664 48.699s57.828-3.1992 79.422-22.531c18.125 16.246 41.844 24.832 66.168 23.945 24.324-0.88672 47.355-11.176 64.25-28.699 16.891-17.523 26.328-40.918 26.32-65.258-0.066407-58.172-23.203-113.94-64.336-155.07-41.129-41.133-96.898-64.27-155.07-64.336zm30.898 224.43v0.003906c-1.7656 10.488-8.75 19.355-18.531 23.527-9.7852 4.1719-21.02 3.0781-29.812-2.9102-8.793-5.9883-13.93-16.039-13.633-26.672 0.30078-10.633 5.9922-20.379 15.102-25.867 9.1133-5.4844 20.395-5.9531 29.93-1.2383 9.5352 4.7148 16.012 13.957 17.188 24.527-0.48828 2.8516-0.57031 5.7578-0.24219 8.6328zm439.28 61.801v0.003906c-0.054687-8.3047-3.3672-16.258-9.2266-22.141l-116.16-116.16v-241.96c-0.007812-8.3125-3.3125-16.281-9.1875-22.16-5.8789-5.8789-13.852-9.1836-22.164-9.1914h-626.87c-8.3164 0.003906-16.289 3.3086-22.172 9.1875-5.8828 5.8789-9.1875 13.848-9.1953 22.164v241.96l-116.16 116.16c-0.12109 0.10938-0.23047 0.23438-0.32422 0.36719-5.6602 5.8398-8.8477 13.641-8.8867 21.773v564.25-0.003906c0.035156 24.934 9.957 48.836 27.594 66.465 17.633 17.625 41.539 27.535 66.473 27.559h752.21c24.934-0.019531 48.844-9.9258 66.48-27.555 17.637-17.629 27.559-41.531 27.586-66.469zm-125.39-49.66 49.707 49.707-49.707 49.707zm-626.87-75.676v-223.56h564.15v461.31l-169.7 169.71h-224.75l-169.7-169.71zm-62.719 75.68 0.003907 99.414-49.707-49.707 49.707-49.707zm-62.668 600.9v-475.53l237.77 237.76zm44.328 44.312 250.76-250.71h224.75l250.77 250.71zm770.6-44.312-237.75-237.77 237.75-237.76z" fill="#fff" fill-rule="evenodd"/>
</svg>
