<?xml version="1.0" encoding="UTF-8"?>
<svg width="1200pt" height="1200pt" version="1.1" viewBox="0 0 1200 1200" xmlns="http://www.w3.org/2000/svg">
 <g fill="#fff">
  <path d="m654.38 414.15c121.98 0 166.26-148.25 166.26-247.89 0-44.098-17.52-86.387-48.699-117.57-31.18-31.18-73.469-48.695-117.56-48.695s-86.383 17.516-117.56 48.695c-31.18 31.18-48.695 73.469-48.695 117.57-0.003907 99.641 44.277 247.89 166.26 247.89zm0-401.7c40.777 0.046875 79.871 16.266 108.7 45.098 28.836 28.836 45.055 67.93 45.102 108.7 0 94.637-40.957 235.43-153.8 235.43-112.84 0-153.8-140.8-153.8-235.43 0.046876-40.773 16.266-79.867 45.102-108.7 28.832-28.832 67.926-45.051 108.7-45.098z"/>
  <path d="m940.05 522.2c-86.652-44.043-182.78-66.168-279.97-64.445-128.68 0-248.3 23.199-304.74 59.105v-0.003907c-35.449 21.023-65.5 50.031-87.762 84.715-22.266 34.684-36.125 74.086-40.477 115.07-12.492 107.2 13.77 252.05 37.562 297.4 23.477 44.734 69.582 65.316 112.13 49.984 32.371-11.648 111.56-94.793 168.31-156.32 3.7656-4.0859 6.8242-7.3945 9.0156-9.7422v-0.003906c13.453-14.469 24.773-30.785 33.617-48.453 2.9141-1 8.3281-2.9258 16.664-6.1211 13.617-5.2227 49.676-27.047 58.074-50.078 8.5039-22.676 6.5156-47.957-5.4297-69.023-7-16.66-17.75-31.48-31.414-43.312l53.098-65.199 0.48047-0.67969c4.75-7.7539 10-23.391-0.49219-32.801-10.691-9.6055-26.359-0.89844-34.254 6.0508l-85.543 86.422c-1.793 1.2344-3.4492 2.6641-4.9414 4.2539l-19.477 20.227h0.003907c-1.5-3.2344-2.7539-6.5781-3.7539-10.004-3.7227-12.848-11.941-23.926-23.156-31.215-5.8086-3.2227-12.754-3.6797-18.934-1.2422-3.1602 1.3477-5.5117 4.0938-6.3633 7.4258-0.38281 4.5234 0.27344 9.0742 1.9297 13.305 2.043 7.1211 3.5742 14.375 4.5781 21.715 0.97266 7.7773 4.5508 22.398 8.0156 36.535 2.2305 9.1289 5.1562 21.074 6.0625 26.461-4.7812 2.5-15.801 7.3867-25.277 11.324l-0.74219 0.36328c-0.44141 0.25781-43.246 25.25-86.68 57.422 2.043-12.301 4.9883-31.301 7.7734-53.84 4.9336-39.844 6.4766-75.504 6.4883-75.863l-12.438-0.51562c-0.019531 0.35156-1.5391 35.504-6.4062 74.852-4.1523 33.559-8.6406 59.109-9.9102 66.117-20.668 15.41-42.125 29.738-64.281 42.918l6.1328 10.84h-0.003906c26.238-15.582 51.523-32.707 75.734-51.285 28.793-21.406 58.668-41.32 89.504-59.664 28.5-11.859 30.355-14.242 31.359-15.531 2.6289-3.375 2.2383-6.1094-5.2188-36.562-3.2227-13.148-6.875-28.055-7.7539-35.117-1.0664-7.9062-2.707-15.727-4.9062-23.398-0.62109-2.3086-1.3555-5.0586-1.6719-6.457 2.5781-0.40234 5.2188 0.078126 7.4922 1.3633 8.0117 5.7383 13.879 13.98 16.676 23.426 2.1562 7.1172 5.1172 13.965 8.8281 20.406l4.1719 7.0391 31.312-32.52c1.0234-1.082 2.168-2.043 3.4102-2.8633l86.508-87.262c3.8008-3.3125 13.465-9.3828 17.406-5.8516 4.8125 4.3203-0.63281 14.883-1.6484 16.742l-61.746 75.816 6.457 3.625 0.003906-0.003907c14.719 10.418 25.984 25.008 32.332 41.891 10.48 18.055 12.309 39.855 4.9844 59.406-6.4961 17.812-38.574 38.016-50.836 42.715-12.75 4.8867-18.531 6.7344-18.586 6.7539l-2.6758 0.85547-1.1328 2.5625v-0.003906c-8.418 17.375-19.379 33.395-32.523 47.531-2.207 2.3594-5.2812 5.6914-9.0703 9.7969-32.188 34.895-130.12 141.09-163.38 153.05-37.102 13.355-76.055-4.3477-96.879-44.055-23.082-43.969-48.457-185.18-36.227-290.16v-0.003906c4.1758-39.133 17.43-76.75 38.707-109.86s49.988-60.793 83.852-80.852c41.445-26.367 144.37-57.16 298.05-57.16 95.25-1.6992 189.46 19.973 274.4 63.125 42.035 21.043 28.555 212.48 21.32 315.32-8.4102 119.4-60.402 302.88-60.926 304.71l-0.23828 1.7109c0 13.613-81.219 32.469-233.71 32.469-152.5 0-233.72-18.855-233.72-32.469l-18.098-69.824-12.055 3.1641 17.719 67.551c0.50391 10.113 10.371 24.273 80.305 34.297h-0.003906c55 6.9648 110.41 10.219 165.85 9.7383 40.781 0 242.98-2.1289 246.13-43.926 3.5781-12.711 52.934-189.64 61.164-306.54 10.781-153.1 17.484-304.48-28.168-327.34z"/>
  <path d="m469.07 992.38-0.65625 0.015625c1.793 0.042969 2.8906 0.046875 3.4492 0.035156-0.99609-0.011719-1.918-0.03125-2.793-0.050781z"/>
 </g>
</svg>
