<?xml version="1.0" encoding="UTF-8"?>
<svg width="1200pt" height="1200pt" version="1.1" viewBox="0 0 1200 1200" xmlns="http://www.w3.org/2000/svg">
 <g>
  <path d="m543.75 131.25c0-31.066 25.184-56.25 56.25-56.25s56.25 25.184 56.25 56.25c0 24.492-15.652 45.328-37.5 53.051v40.699h168.75c82.844 0 150 67.156 150 150v281.25c0 31.066-25.184 56.25-56.25 56.25h-93.75v42.102l221.7 63.344c24.148 6.9023 40.797 28.973 40.797 54.086v159.21c0 10.355-8.3945 18.75-18.75 18.75l-37.5 0.003906c-10.355 0-18.75-8.3945-18.75-18.75v-169.93c0-8.3711-5.5508-15.727-13.598-18.027l-195.26-55.789h-332.28l-232.76 66.504c-8.0469 2.3008-13.598 9.6562-13.598 18.027v60.848l145.93-32.43c10.109-2.2461 20.125 4.1289 22.371 14.238 2.2461 10.109-4.1289 20.125-14.238 22.371l-168.75 37.5c-9.2266 2.0508-18.379-3.082-21.609-11.684-0.51172-1.3516-0.87109-2.7773-1.0586-4.2539-0.11719-0.92578-0.16797-1.8477-0.14844-2.7578v-83.832c0-25.113 16.648-47.184 40.797-54.086l221.7-63.344v-42.102h-93.75c-31.066 0-56.25-25.184-56.25-56.25v-281.25c0-82.844 67.156-150 150-150h75c10.355 0 18.75 8.3945 18.75 18.75s-8.3945 18.75-18.75 18.75h-75c-62.133 0-112.5 50.367-112.5 112.5v281.25c0 10.355 8.3945 18.75 18.75 18.75h562.5c10.355 0 18.75-8.3945 18.75-18.75v-281.25c0-62.133-50.367-112.5-112.5-112.5h-187.5c-10.355 0-18.75-8.3945-18.75-18.75v-59.449c-21.848-7.7227-37.5-28.559-37.5-53.051zm56.25-18.75c-10.355 0-18.75 8.3945-18.75 18.75s8.3945 18.75 18.75 18.75 18.75-8.3945 18.75-18.75-8.3945-18.75-18.75-18.75z" fill-rule="evenodd"/>
  <path d="m412.5 881.25c0-10.355 8.3945-18.75 18.75-18.75h337.5c10.355 0 18.75 8.3945 18.75 18.75v150c0 10.355-8.3945 18.75-18.75 18.75s-18.75-8.3945-18.75-18.75v-131.25h-300v56.25c0 10.355-8.3945 18.75-18.75 18.75s-18.75-8.3945-18.75-18.75z"/>
  <path d="m675 993.75c10.355 0 18.75-8.3945 18.75-18.75s-8.3945-18.75-18.75-18.75-18.75 8.3945-18.75 18.75 8.3945 18.75 18.75 18.75z"/>
  <path d="m618.75 975c0 10.355-8.3945 18.75-18.75 18.75s-18.75-8.3945-18.75-18.75 8.3945-18.75 18.75-18.75 18.75 8.3945 18.75 18.75z"/>
  <path d="m468.75 337.5c-72.488 0-131.25 58.762-131.25 131.25s58.762 131.25 131.25 131.25h262.5c72.488 0 131.25-58.762 131.25-131.25s-58.762-131.25-131.25-131.25zm75 112.5c0-10.355-8.3945-18.75-18.75-18.75s-18.75 8.3945-18.75 18.75v37.5c0 10.355 8.3945 18.75 18.75 18.75s18.75-8.3945 18.75-18.75zm131.25-18.75c10.355 0 18.75 8.3945 18.75 18.75v37.5c0 10.355-8.3945 18.75-18.75 18.75s-18.75-8.3945-18.75-18.75v-37.5c0-10.355 8.3945-18.75 18.75-18.75z" fill-rule="evenodd"/>
 </g>
</svg>
