<svg version="1.1" xmlns="http://www.w3.org/2000/svg" xmlns:xlink="http://www.w3.org/1999/xlink" width="182.4666748046875" height="59.350006103515625"><defs></defs><g transform="translate(90.60000610351562,25.033340454101562)"><rect fill="rgb(255,255,255)" stroke="none" x="0" y="0" width="182.4666748046875" height="59.350006103515625" fill-opacity="0" transform="translate(-90.60000610351562,-25.033340454101562)"></rect><g transform="translate(NaN,NaN) rotate(0,0,0) translate(NaN,NaN) matrix(1,0,0,1,NaN,NaN)"><path fill="rgb(255,255,255)" fill-opacity="1" d="M-69.27-1.08L-69.27-1.08Q-70.32-0.49-71.16-0.01Q-71.99 0.47-72.71 0.83Q-73.44 1.20-74.07 1.44Q-74.71 1.69-75.36 1.80L-75.36 1.80Q-75.71 1.88-76.28 1.89Q-76.84 1.90-77.57 1.90L-77.57 1.90Q-78.15 3.05-78.59 3.88Q-79.02 4.71-79.32 5.25L-79.32 5.25Q-79.68 5.88-79.93 6.35L-79.93 6.35Q-81.97 10.48-83.39 12.77Q-84.81 15.07-85.77 15.82L-85.77 15.82Q-85.16 15.70-84.55 15.67Q-83.94 15.63-83.29 15.63L-83.29 15.63Q-82.23 15.63-81.20 15.70Q-80.17 15.77-79.16 15.83Q-78.15 15.89-77.19 15.91Q-76.23 15.94-75.27 15.82L-75.27 15.82Q-73.98 15.75-72.60 15.61L-72.60 15.61Q-71.40 15.49-69.96 15.27Q-68.52 15.05-67.11 14.67L-67.11 14.67Q-68.31 15.87-69.59 16.62Q-70.86 17.37-72.23 17.79Q-73.61 18.21-75.06 18.38Q-76.51 18.54-78.01 18.54L-78.01 18.54Q-79.42 18.54-80.88 18.48Q-82.35 18.42-83.64 18.35Q-84.93 18.28-85.93 18.22Q-86.94 18.16-87.46 18.16L-87.46 18.16Q-88.04 18.16-88.63 18.21L-88.63 18.21Q-89.12 18.26-89.66 18.33Q-90.20 18.40-90.57 18.54L-90.57 18.54Q-89.94 17.79-89.23 16.75Q-88.51 15.70-87.77 14.51Q-87.04 13.31-86.31 12.04Q-85.58 10.76-84.93 9.54L-84.93 9.54Q-83.38 6.68-81.83 3.52L-81.83 3.52Q-81.76 3.35-81.64 3.09L-81.64 3.09Q-81.55 2.88-81.41 2.59Q-81.27 2.30-81.08 1.90L-81.08 1.90Q-82.42 1.95-83.82 2.05Q-85.23 2.16-86.54 2.41L-86.54 2.41L-82.46-0.30Q-81.79-0.30-81.19-0.30Q-80.59-0.30-79.98-0.35L-79.98-0.35Q-79.37-1.64-78.63-3.22Q-77.89-4.80-77.12-6.47Q-76.35-8.13-75.60-9.83Q-74.85-11.53-74.17-13.08L-74.17-13.08Q-74.92-13.01-75.93-12.95Q-76.93-12.89-78.06-12.83Q-79.18-12.77-80.36-12.74Q-81.53-12.70-82.57-12.68Q-83.61-12.66-84.47-12.64Q-85.32-12.63-85.82-12.66L-85.82-12.66Q-86.40-12.68-87.11-12.61L-87.11-12.61Q-87.71-12.56-88.49-12.40Q-89.26-12.23-90.15-11.93L-90.15-11.93Q-89.05-13.34-88.04-14.07Q-87.04-14.81-86.26-15.16L-86.26-15.16Q-85.35-15.59-84.57-15.63L-84.57-15.63Q-83.92-15.63-82.52-15.60Q-81.13-15.56-79.39-15.53Q-77.66-15.49-75.76-15.47Q-73.86-15.45-72.15-15.45L-72.15-15.45Q-70.39-15.45-69.06-15.48Q-67.72-15.52-67.11-15.63L-67.11-15.63Q-67.68-15.26-68.26-14.94Q-68.85-14.63-69.46-14.32L-69.46-14.32Q-71.75-9.61-73.43-6.27Q-75.11-2.93-76.32-0.52L-76.32-0.52Q-74.50-0.61-73.16-0.70Q-71.82-0.80-70.96-0.89L-70.96-0.89Q-69.95-0.98-69.27-1.08ZM-58.00-22.69L-58.00-22.69Q-57.95-22.24-57.95-21.52Q-57.95-20.79-57.95-19.80L-57.95-19.80Q-57.95-14.37-58.20-9.18Q-58.44-3.98-58.82 1.17L-58.82 1.17Q-57.95-0.19-56.88-1.59Q-55.82-3-54.62-4.14Q-53.43-5.27-52.14-5.99Q-50.85-6.70-49.51-6.70L-49.51-6.70Q-48.41-6.70-47.68-6.14Q-46.96-5.58-46.54-4.73Q-46.11-3.89-45.94-2.91Q-45.76-1.92-45.76-1.08L-45.76-1.08Q-45.76 0.70-45.90 2.45Q-46.04 4.20-46.20 5.91Q-46.35 7.62-46.49 9.32Q-46.63 11.02-46.63 12.70L-46.63 12.70Q-46.63 13.17-46.58 13.64Q-46.54 14.11-46.37 14.50Q-46.21 14.88-45.91 15.13Q-45.62 15.38-45.13 15.38L-45.13 15.38Q-44.47 15.38-43.78 14.82Q-43.09 14.27-42.49 13.54Q-41.89 12.80-41.41 12.06Q-40.93 11.32-40.68 10.92L-40.68 10.92L-41.19 13.08Q-42.22 14.09-42.89 14.71Q-43.56 15.33-43.96 15.70L-43.96 15.70Q-44.43 16.13-44.71 16.34L-44.71 16.34Q-44.99 16.57-45.41 16.97Q-45.83 17.37-46.34 17.74Q-46.84 18.12-47.39 18.39Q-47.94 18.66-48.50 18.66L-48.50 18.66Q-48.97 18.66-49.28 18.52Q-49.58 18.38-49.77 18.02Q-49.96 17.67-50.04 17.10Q-50.12 16.52-50.12 15.63L-50.12 15.63Q-50.12 13.43-49.99 11.33Q-49.86 9.23-49.72 7.20Q-49.58 5.16-49.49 3.16Q-49.39 1.17-49.46-0.80L-49.46-0.80Q-49.51-1.36-49.75-1.86Q-49.98-2.37-50.39-2.74Q-50.80-3.12-51.36-3.32Q-51.93-3.52-52.58-3.45L-52.58-3.45Q-53.24-3.38-53.86-3.07Q-54.48-2.77-55.08-2.16Q-55.68-1.55-56.27-0.59Q-56.87 0.38-57.48 1.80L-57.48 1.80Q-57.74 2.44-58.02 3.21L-58.02 3.21Q-58.28 3.89-58.58 4.79Q-58.89 5.70-59.19 6.80L-59.19 6.80L-59.78 16.24L-63.53 19.17Q-63.15 14.65-62.79 10.32Q-62.43 6-62.14 1.82Q-61.86-2.37-61.69-6.46Q-61.51-10.55-61.51-14.63L-61.51-14.63Q-61.51-16.08-61.57-17.30Q-61.63-18.52-61.73-19.44Q-61.84-20.37-62.00-20.98Q-62.17-21.59-62.40-21.82L-62.40-21.82Q-62.75-22.05-63.22-22.05L-63.22-22.05Q-63.62-22.05-64.22-21.83Q-64.82-21.61-65.64-20.91L-65.64-20.91Q-65.14-21.33-64.42-22.03Q-63.69-22.73-62.89-23.40Q-62.10-24.07-61.30-24.55Q-60.50-25.03-59.87-25.03L-59.87-25.03Q-59.19-25.03-58.65-24.49Q-58.11-23.95-58.00-22.69ZM-28.21 10.78L-28.21 10.78L-28.72 12.70Q-29.12 13.10-29.70 13.70Q-30.27 14.30-30.96 14.96Q-31.65 15.63-32.40 16.29Q-33.15 16.95-33.88 17.46Q-34.61 17.98-35.27 18.27Q-35.94 18.56-36.46 18.49L-36.46 18.49Q-37.25 18.38-37.59 17.33Q-37.93 16.29-37.93 13.95L-37.93 13.95Q-37.93 13.52-37.90 12.57Q-37.86 11.63-37.80 10.36Q-37.75 9.09-37.66 7.58Q-37.58 6.07-37.49 4.54Q-37.39 3-37.29 1.51Q-37.18 0.02-37.07-1.22L-37.07-1.22Q-37.00-2.04-37.39-2.40Q-37.79-2.77-38.38-2.77L-38.38-2.77Q-38.87-2.77-39.41-2.53Q-39.95-2.30-40.39-1.90L-40.39-1.90Q-39.46-2.81-38.73-3.43Q-38.00-4.05-37.49-4.45L-37.49-4.45Q-36.88-4.90-36.46-5.20L-36.46-5.20Q-35.87-5.55-35.32-5.57Q-34.77-5.58-34.34-5.30Q-33.90-5.02-33.66-4.48Q-33.41-3.94-33.43-3.19L-33.43-3.19Q-33.46-2.67-33.54-1.54Q-33.62-0.40-33.73 1.05Q-33.83 2.51-33.96 4.13Q-34.09 5.74-34.20 7.24Q-34.30 8.74-34.38 9.96Q-34.46 11.18-34.49 11.84L-34.49 11.84Q-34.54 13.17-34.20 13.99Q-33.86 14.81-33.11 14.81L-33.11 14.81Q-32.54 14.81-31.80 14.32Q-31.07 13.83-30.34 13.17Q-29.61 12.52-29.04 11.84Q-28.46 11.16-28.21 10.78ZM-36.01-20.48L-32.19-23.79Q-32.14-22.64-32.25-21.74Q-32.36-20.84-32.50-20.20L-32.50-20.20Q-32.66-19.45-32.89-18.89L-32.89-18.89Q-33.18-18.33-33.76-17.67L-33.76-17.67Q-34.25-17.11-35.11-16.37Q-35.96-15.63-37.32-14.81L-37.32-14.81Q-36.88-15.70-36.62-16.70Q-36.36-17.70-36.22-18.54L-36.22-18.54Q-36.06-19.52-36.01-20.48L-36.01-20.48ZM-24.76-20.91L-20.92-24.21Q-20.89-23.06-21-22.16Q-21.11-21.26-21.25-20.63L-21.25-20.63Q-21.41-19.88-21.62-19.31L-21.62-19.31Q-21.90-18.77-22.49-18.12L-22.49-18.12Q-22.98-17.55-23.85-16.80Q-24.71-16.05-26.10-15.23L-26.10-15.23Q-25.63-16.13-25.37-17.13Q-25.11-18.14-24.97-18.98L-24.97-18.98Q-24.81-19.97-24.76-20.91L-24.76-20.91ZM-21.20-3.63L-21.20-3.63Q-21.22-3.23-21.28-1.95Q-21.34-0.66-21.42 1.24Q-21.50 3.14-21.63 5.45Q-21.76 7.76-21.91 10.16Q-22.07 12.56-22.24 14.91Q-22.42 17.25-22.62 19.20Q-22.82 21.14-23.04 22.54Q-23.26 23.93-23.50 24.45L-23.50 24.45Q-23.96 25.48-24.68 26.48Q-25.39 27.49-26.25 28.42Q-27.11 29.34-28.05 30.18Q-29.00 31.01-29.99 31.66L-29.99 31.66Q-30.95 32.32-31.98 32.84Q-33.01 33.35-34.02 33.70Q-35.03 34.05-36 34.21Q-36.97 34.36-37.82 34.29L-37.82 34.29Q-38.64 34.22-39.36 34.00Q-40.09 33.77-40.56 33.45Q-41.03 33.12-41.14 32.70Q-41.26 32.27-40.89 31.80L-40.89 31.80Q-40.56 31.43-40.07 30.91L-40.07 30.91Q-39.64 30.47-38.96 29.85Q-38.29 29.23-37.28 28.43L-37.28 28.43Q-37.49 28.83-37.50 29.17Q-37.51 29.51-37.44 29.77L-37.44 29.77Q-37.35 30.05-37.18 30.30L-37.18 30.30Q-37.04 30.49-36.69 30.64Q-36.34 30.80-35.85 30.90Q-35.36 31.01-34.76 31.07Q-34.16 31.13-33.53 31.13L-33.53 31.13Q-30.48 31.13-28.61 29.57Q-26.73 28.01-26.43 25.08L-26.43 25.08Q-26.36 24.42-26.26 23.00Q-26.17 21.59-26.06 19.70Q-25.96 17.81-25.83 15.62Q-25.70 13.43-25.57 11.18Q-25.44 8.93-25.32 6.80Q-25.21 4.66-25.11 2.92Q-25.02 1.17-24.95-0.05Q-24.88-1.27-24.86-1.66L-24.86-1.66Q-24.79-2.48-25.17-2.84Q-25.56-3.19-26.14-3.19L-26.14-3.19Q-26.68-3.19-27.28-2.92Q-27.88-2.65-28.30-2.18L-28.30-2.18Q-27.32-3.16-26.57-3.83Q-25.82-4.50-25.28-4.90L-25.28-4.90Q-24.67-5.37-24.22-5.65L-24.22-5.65Q-23.64-6-23.09-6.01Q-22.54-6.02-22.10-5.74Q-21.67-5.46-21.42-4.92Q-21.18-4.38-21.20-3.63ZM-4.98 10.78L-4.98 10.78L-5.50 12.70Q-5.89 13.10-6.47 13.70Q-7.04 14.30-7.73 14.96Q-8.43 15.63-9.18 16.29Q-9.93 16.95-10.65 17.46Q-11.38 17.98-12.05 18.27Q-12.71 18.56-13.23 18.49L-13.23 18.49Q-14.03 18.38-14.37 17.33Q-14.71 16.29-14.71 13.95L-14.71 13.95Q-14.71 13.52-14.67 12.57Q-14.64 11.63-14.58 10.36Q-14.52 9.09-14.44 7.58Q-14.36 6.07-14.26 4.54Q-14.17 3-14.06 1.51Q-13.96 0.02-13.84-1.22L-13.84-1.22Q-13.77-2.04-14.17-2.40Q-14.57-2.77-15.15-2.77L-15.15-2.77Q-15.64-2.77-16.18-2.53Q-16.72-2.30-17.17-1.90L-17.17-1.90Q-16.23-2.81-15.50-3.43Q-14.78-4.05-14.26-4.45L-14.26-4.45Q-13.65-4.90-13.23-5.20L-13.23-5.20Q-12.64-5.55-12.09-5.57Q-11.54-5.58-11.11-5.30Q-10.68-5.02-10.43-4.48Q-10.18-3.94-10.21-3.19L-10.21-3.19Q-10.23-2.67-10.31-1.54Q-10.39-0.40-10.50 1.05Q-10.61 2.51-10.73 4.13Q-10.86 5.74-10.97 7.24Q-11.07 8.74-11.16 9.96Q-11.24 11.18-11.26 11.84L-11.26 11.84Q-11.31 13.17-10.97 13.99Q-10.63 14.81-9.88 14.81L-9.88 14.81Q-9.32 14.81-8.58 14.32Q-7.84 13.83-7.11 13.17Q-6.39 12.52-5.81 11.84Q-5.24 11.16-4.98 10.78ZM-12.79-20.48L-8.96-23.79Q-8.92-22.64-9.02-21.74Q-9.13-20.84-9.27-20.20L-9.27-20.20Q-9.43-19.45-9.67-18.89L-9.67-18.89Q-9.95-18.33-10.54-17.67L-10.54-17.67Q-11.03-17.11-11.88-16.37Q-12.74-15.63-14.10-14.81L-14.10-14.81Q-13.65-15.70-13.39-16.70Q-13.14-17.70-13.00-18.54L-13.00-18.54Q-12.83-19.52-12.79-20.48L-12.79-20.48ZM8.99 8.67L8.99 11.25Q7.75 12.66 6.70 13.72Q5.66 14.79 4.86 15.52L4.86 15.52Q3.93 16.36 3.18 16.97L3.18 16.97Q1.11 18.61-0.41 18.61L-0.41 18.61Q-1.28 18.61-1.90 18.15Q-2.52 17.70-2.96 16.97Q-3.41 16.24-3.69 15.33Q-3.97 14.41-4.13 13.49Q-4.28 12.56-4.34 11.72Q-4.39 10.88-4.39 10.29L-4.39 10.29Q-4.39 8.72-4.03 6.89Q-3.67 5.06-2.98 3.25Q-2.29 1.43-1.28-0.25Q-0.27-1.92 1.03-3.22Q2.33-4.52 3.89-5.30Q5.45-6.07 7.25-6.07L7.25-6.07Q7.75-6.07 8.07-5.89Q8.40-5.72 8.61-5.41Q8.82-5.11 8.91-4.73Q8.99-4.36 8.99-3.96L8.99-3.96Q8.99-2.93 8.52-1.90Q8.05-0.87 7.27 0.13Q6.48 1.13 5.47 2.07Q4.46 3.02 3.38 3.88Q2.29 4.73 1.21 5.48Q0.13 6.23-0.76 6.84L-0.76 6.84L-0.76 7.36Q-0.76 7.95-0.70 8.78Q-0.64 9.61-0.49 10.51Q-0.34 11.41-0.08 12.30Q0.18 13.20 0.57 13.90Q0.97 14.60 1.52 15.04Q2.07 15.47 2.80 15.47L2.80 15.47Q3.13 15.47 3.48 15.36Q3.83 15.26 4.18 15L4.18 15Q4.79 14.51 5.57 13.64L5.57 13.64Q6.22 12.89 7.09 11.70Q7.96 10.50 8.99 8.67L8.99 8.67ZM4.63-2.58L4.63-2.58Q4.35-2.91 3.90-3Q3.46-3.09 2.95-2.95Q2.45-2.81 1.97-2.41Q1.49-2.02 1.16-1.36L1.16-1.36Q0.69-0.42 0.13 1.32Q-0.43 3.07-0.67 5.34L-0.67 5.34Q0.08 4.90 0.88 4.31Q1.68 3.73 2.41 3.07Q3.15 2.41 3.75 1.70Q4.35 0.98 4.69 0.25Q5.03-0.49 5.05-1.21Q5.07-1.92 4.63-2.58ZM55.93 15.87L55.93 15.87Q55.30 16.27 54.60 16.68Q53.89 17.09 53.16 17.43Q52.42 17.77 51.62 17.99Q50.82 18.21 50.03 18.21L50.03 18.21Q49.96 18.21 49.48 18.22Q49.00 18.23 48.41 18.25Q47.82 18.26 47.26 18.26Q46.70 18.26 46.46 18.21L46.46 18.21L46.96 17.70L37.16 3.38Q36.32 4.43 35.40 5.51Q34.49 6.59 33.26 8.00Q32.03 9.42 30.34 11.34Q28.65 13.27 26.26 16.01L26.26 16.01Q27.20 16.13 27.98 16.16Q28.77 16.20 29.38 16.20L29.38 16.20Q30.01 16.20 30.47 16.17Q30.93 16.15 31.25 16.10L31.25 16.10Q31.63 16.05 31.89 16.01L31.89 16.01Q30.69 16.64 29.75 17.07Q28.82 17.51 28.01 17.77Q27.20 18.02 26.44 18.14Q25.68 18.26 24.83 18.26L24.83 18.26Q24.79 18.26 24.32 18.27Q23.85 18.28 23.25 18.29Q22.65 18.30 22.09 18.30Q21.53 18.30 21.32 18.26L21.32 18.26L25.07 15.73Q28.00 12.21 30.75 8.79Q33.50 5.37 36.15 1.90L36.15 1.90L25.98-12.98Q25.25-12.91 24.36-12.81Q23.47-12.70 22.37-12.52L22.37-12.52Q23.61-13.69 24.63-14.30Q25.65-14.91 26.38-15.19L26.38-15.19Q27.22-15.52 27.90-15.54L27.90-15.54Q28.72-15.52 29.71-15.56Q30.69-15.61 31.62-15.71Q32.54-15.82 33.30-15.95Q34.07-16.08 34.46-16.24L34.46-16.24Q33.39-15.42 32.50-14.86Q31.61-14.30 30.79-13.95L30.79-13.95L38.99-1.90Q41.00-4.69 42.91-7.45Q44.82-10.22 46.70-13.08L46.70-13.08Q46.02-13.01 45.14-12.93Q44.26-12.84 43.25-12.70L43.25-12.70Q44.52-13.83 45.55-14.41Q46.58-15 47.33-15.26L47.33-15.26Q48.20-15.56 48.88-15.59L48.88-15.59Q49.21-15.54 49.56-15.54Q49.91-15.54 50.26-15.54L50.26-15.54Q51.01-15.54 51.80-15.57Q52.58-15.61 53.29-15.68Q53.99-15.75 54.55-15.84Q55.11-15.94 55.44-16.05L55.44-16.05Q54.43-15.30 53.60-14.80Q52.77-14.30 52.01-13.96Q51.25-13.62 50.53-13.44Q49.82-13.27 49.07-13.17L49.07-13.17Q47.36-10.76 46.00-8.84Q44.64-6.91 43.55-5.37Q42.46-3.82 41.59-2.60Q40.72-1.38 40.00-0.40L40.00-0.40L51.13 15.87Q52.84 16.01 53.87 16.01L53.87 16.01Q54.95 16.01 55.44 15.94L55.44 15.94Q55.72 15.91 55.93 15.87ZM68.73 10.78L68.73 10.78L68.21 12.70Q67.82 13.10 67.24 13.70Q66.67 14.30 65.98 14.96Q65.29 15.63 64.54 16.29Q63.79 16.95 63.06 17.46Q62.33 17.98 61.66 18.27Q61.00 18.56 60.48 18.49L60.48 18.49Q59.68 18.38 59.34 17.33Q59.00 16.29 59.00 13.95L59.00 13.95Q59.00 13.52 59.04 12.57Q59.07 11.63 59.13 10.36Q59.19 9.09 59.27 7.58Q59.36 6.07 59.45 4.54Q59.54 3 59.65 1.51Q59.75 0.02 59.87-1.22L59.87-1.22Q59.94-2.04 59.54-2.40Q59.14-2.77 58.56-2.77L58.56-2.77Q58.07-2.77 57.53-2.53Q56.99-2.30 56.54-1.90L56.54-1.90Q57.48-2.81 58.21-3.43Q58.93-4.05 59.45-4.45L59.45-4.45Q60.06-4.90 60.48-5.20L60.48-5.20Q61.07-5.55 61.62-5.57Q62.17-5.58 62.60-5.30Q63.04-5.02 63.28-4.48Q63.53-3.94 63.50-3.19L63.50-3.19Q63.48-2.67 63.40-1.54Q63.32-0.40 63.21 1.05Q63.11 2.51 62.98 4.13Q62.85 5.74 62.74 7.24Q62.64 8.74 62.55 9.96Q62.47 11.18 62.45 11.84L62.45 11.84Q62.40 13.17 62.74 13.99Q63.08 14.81 63.83 14.81L63.83 14.81Q64.39 14.81 65.13 14.32Q65.87 13.83 66.60 13.17Q67.32 12.52 67.90 11.84Q68.47 11.16 68.73 10.78ZM60.93-20.48L64.75-23.79Q64.79-22.64 64.69-21.74Q64.58-20.84 64.44-20.20L64.44-20.20Q64.28-19.45 64.04-18.89L64.04-18.89Q63.76-18.33 63.18-17.67L63.18-17.67Q62.68-17.11 61.83-16.37Q60.97-15.63 59.61-14.81L59.61-14.81Q60.06-15.70 60.32-16.70Q60.57-17.70 60.71-18.54L60.71-18.54Q60.88-19.52 60.93-20.48L60.93-20.48ZM91.86 10.15L91.86 11.98Q91.65 12.30 91.28 12.76Q90.90 13.22 90.53 13.66L90.53 13.66Q90.11 14.18 89.61 14.72L89.61 14.72Q89.00 15.47 88.30 16.17Q87.60 16.88 86.91 17.43Q86.21 17.98 85.56 18.30Q84.90 18.63 84.39 18.61L84.39 18.61Q83.40 18.56 83.03 17.40Q82.65 16.24 82.65 14.04L82.65 14.04Q82.65 12.87 82.72 11.51Q82.79 10.15 82.93 8.46L82.93 8.46Q82.42 9.28 81.95 9.96Q81.48 10.64 81.11 11.16L81.11 11.16Q80.68 11.77 80.26 12.26L80.26 12.26Q79.02 13.78 77.86 14.95Q76.70 16.13 75.73 16.92Q74.75 17.72 74.02 18.14Q73.28 18.56 72.86 18.61L72.86 18.61Q72.43 18.66 71.84 18.33Q71.24 18 70.70 17.06Q70.16 16.13 69.77 14.44Q69.39 12.75 69.41 10.05L69.41 10.05Q69.43 7.36 69.98 5.31Q70.54 3.26 71.41 1.72Q72.29 0.19 73.37-0.93Q74.45-2.04 75.50-2.86L75.50-2.86Q77.68-4.52 79.69-5.52Q81.69-6.52 83.61-6.56L83.61-6.56Q84.25-6.59 84.86-6.54L84.86-6.54Q85.39-6.49 86.02-6.39Q86.64-6.28 87.20-6.07L87.20-6.07L87.88-6.61Q87.74-5.95 87.59-4.83Q87.43-3.70 87.29-2.30Q87.15-0.89 87.01 0.70Q86.87 2.30 86.77 3.90Q86.66 5.51 86.57 7.02Q86.47 8.53 86.41 9.77Q86.36 11.02 86.34 11.88Q86.33 12.75 86.36 13.08L86.36 13.08Q86.47 14.41 86.98 14.91Q87.48 15.40 88.37 14.81L88.37 14.81Q88.72 14.53 89.24 13.92L89.24 13.92Q89.68 13.41 90.33 12.50Q90.97 11.60 91.86 10.15L91.86 10.15ZM83.38 2.55L83.85-2.95Q81.62-3.23 80.19-3.23L80.19-3.23Q78.67-3.23 77.54-2.74Q76.42-2.25 75.62-1.42Q74.82-0.59 74.31 0.50Q73.79 1.59 73.50 2.81Q73.21 4.03 73.10 5.30Q73.00 6.56 73.00 7.71L73.00 7.71Q73.00 8.11 73.04 8.79Q73.09 9.47 73.22 10.24Q73.35 11.02 73.55 11.81Q73.75 12.61 74.06 13.25Q74.38 13.90 74.80 14.31Q75.22 14.72 75.79 14.72L75.79 14.72Q76.39 14.72 77.27 14.05Q78.15 13.38 79.39 11.79L79.39 11.79Q80.12 10.80 80.85 9.42L80.85 9.42Q81.46 8.25 82.15 6.54Q82.84 4.83 83.38 2.55L83.38 2.55Z"></path></g></g></svg>