<?xml version="1.0" encoding="UTF-8"?>
<svg width="1200pt" height="1200pt" version="1.1" viewBox="0 0 1200 1200" xmlns="http://www.w3.org/2000/svg">
 <path d="m599.29 29.754c315.94 0 570.96 255.02 570.96 569.54 0 315.94-255.02 570.96-570.96 570.96-314.52 0-569.54-255.02-569.54-570.96 0-314.52 255.02-569.54 569.54-569.54zm-327.27 769.3h655.96c65.172 0 65.172 99.172 0 99.172h-655.96c-65.172 0-65.172-99.172 0-99.172zm0 22.668h655.96c17 0 32.586 14.168 34.004 31.168 2.832-21.25-12.75-39.668-34.004-39.668h-655.96c-21.25 0-38.254 18.418-35.418 39.668 2.832-17 17-31.168 35.418-31.168zm0-272.02h655.96c65.172 0 65.172 99.172 0 99.172h-655.96c-65.172 0-65.172-99.172 0-99.172zm0 24.086h655.96c17 0 32.586 12.75 34.004 29.754 2.832-19.836-12.75-38.254-34.004-38.254h-655.96c-21.25 0-38.254 18.418-35.418 38.254 2.832-17 17-29.754 35.418-29.754zm0-272.02h655.96c65.172 0 65.172 99.172 0 99.172h-655.96c-65.172 0-65.172-99.172 0-99.172zm0 22.668h655.96c17 0 32.586 14.168 34.004 31.168 2.832-19.836-12.75-39.668-34.004-39.668h-655.96c-21.25 0-38.254 19.836-35.418 39.668 2.832-17 17-31.168 35.418-31.168z" fill="#d2d2d2" fill-rule="evenodd"/>
</svg>
